<svg xmlns="http://www.w3.org/2000/svg" xmlns:xlink="http://www.w3.org/1999/xlink" class="mki-logo-svg" viewBox="0 0 1144.08 303.43"><defs><style>.mki-logo-svg path{fill:#fff} .mki-logo-svg polygon{fill:#fff} .cls-1{fill:white;}.cls-2{clip-path:url(#clip-path);}</style><clipPath id="clip-path" transform="translate(44.23 44.23)"><circle class="cls-1" cx="107.48" cy="107.48" r="107.48"/></clipPath></defs><g id="Calque_2" data-name="Calque 2"><g id="Calque_1-2" data-name="Calque 1"><path d="M463,58.21h18V161H463Z" transform="translate(44.23 44.23)"/><path d="M265,58.21h19.19L315.34,107l31.2-48.77h19.19V161h-18V87.5l-32.37,48.34h-.59l-32.08-48V161H265Z" transform="translate(44.23 44.23)"/><polygon points="494.49 205.27 445.25 155.29 498.11 102.44 472.63 102.44 420.92 154.16 471.29 205.27 494.49 205.27"/><path d="M511.5,97V59h4.06L530.7,93.54h-2.13l15-34.51h4V97h-4.48V65.75l1.66.21L531.29,97h-3.41L514.17,66l1.81-.21L516,97Z" transform="translate(44.23 44.23)"/><path d="M565,97h-5.07l16.8-38h4.21l16.86,38h-5L578,62.71h1.66Zm2.13-9.55,1.76-4h19.84l1.76,4Z" transform="translate(44.23 44.23)"/><path d="M610,97V59h15.31q6.24,0,9.52,2.75t3.28,7.92a9.56,9.56,0,0,1-3.36,7.73q-3.36,2.83-9.39,2.83l4-.75a5.69,5.69,0,0,1,3.58,1.15,7.87,7.87,0,0,1,2.4,3.65L640.1,97h-5.28l-4.7-12.65a5.22,5.22,0,0,0-2.37-3,9.33,9.33,0,0,0-4-.74h-8.9V97Zm4.86-20.43h10q4.32,0,6.4-1.74a6.23,6.23,0,0,0,2.08-5.09,6.17,6.17,0,0,0-2-5.07c-1.37-1.1-3.52-1.65-6.43-1.65h-10Z" transform="translate(44.23 44.23)"/><path d="M654,97V59h4.91V97ZM678,97,657.48,77.7,677.16,59h6.19L662.12,79.14l.27-3,22,20.91Z" transform="translate(44.23 44.23)"/><path d="M695.09,97V59h24.26v4H699.94V75.67h18.35v4.11H699.94V93h19.41V97Z" transform="translate(44.23 44.23)"/><path d="M742.07,97V63.19h-13V59h31v4.16h-13V97Z" transform="translate(44.23 44.23)"/><path d="M772.26,97V59h4.91V97Z" transform="translate(44.23 44.23)"/><path d="M793.28,97V59H797l23.68,31.42-1.33.37V59h4.69V97h-3.79L796.64,65.64l1.22-.42V97Z" transform="translate(44.23 44.23)"/><path d="M857.12,97.43a19.91,19.91,0,0,1-9.9-2.32,15.42,15.42,0,0,1-6.32-6.66A23.25,23.25,0,0,1,838.72,78a23.06,23.06,0,0,1,2.18-10.42,15.32,15.32,0,0,1,6.27-6.64,19.33,19.33,0,0,1,9.63-2.3,22,22,0,0,1,7.3,1.18,15.73,15.73,0,0,1,5.82,3.52L868.05,67a19.46,19.46,0,0,0-5.36-3.25,16.09,16.09,0,0,0-5.84-1q-6.35,0-9.68,3.9T843.84,78q0,7.58,3.41,11.5t10,3.92a28.16,28.16,0,0,0,5.22-.48,24.49,24.49,0,0,0,4.65-1.33L866,93.86v-13H856.8V77.06h13.65V94.82a19.41,19.41,0,0,1-3.71,1.39,34.09,34.09,0,0,1-4.66.9A38,38,0,0,1,857.12,97.43Z" transform="translate(44.23 44.23)"/><path d="M522,161.38a15.77,15.77,0,0,1-6.48-1.25,10.17,10.17,0,0,1-4.35-3.5,9.06,9.06,0,0,1-1.55-5.28,10.06,10.06,0,0,1,2.27-6.42,24.41,24.41,0,0,1,7.39-5.68,51.41,51.41,0,0,0,5.25-3.34,10.73,10.73,0,0,0,2.67-2.64,4.82,4.82,0,0,0,.77-2.61,4.22,4.22,0,0,0-4.48-4.43,5,5,0,0,0-3.63,1.34,4.67,4.67,0,0,0-1.38,3.52,5.79,5.79,0,0,0,.34,2,8.69,8.69,0,0,0,1.26,2.16c.6.8,1.46,1.82,2.56,3.07l13,14.45a22.94,22.94,0,0,0,3.44,3,21.9,21.9,0,0,0,4.46,2.4L541,161.49a27.06,27.06,0,0,1-4.75-2.64,21.23,21.23,0,0,1-3.57-3.12l-14-15.52a26.29,26.29,0,0,1-2.83-3.47,13.55,13.55,0,0,1-1.47-2.88,8.6,8.6,0,0,1-.45-2.77,8,8,0,0,1,1.2-4.43,8.23,8.23,0,0,1,3.36-2.93,11.14,11.14,0,0,1,5-1.07,9.31,9.31,0,0,1,6.37,2.08,7.14,7.14,0,0,1,2.38,5.65,8.18,8.18,0,0,1-1,4,12.7,12.7,0,0,1-3.28,3.66,51.09,51.09,0,0,1-6.19,4.08,25.36,25.36,0,0,0-4.29,2.9,9,9,0,0,0-2.32,2.91,7.68,7.68,0,0,0-.7,3.25,5.66,5.66,0,0,0,2.08,4.59,8.67,8.67,0,0,0,5.66,1.71,11,11,0,0,0,6.93-2.35,15.59,15.59,0,0,0,4.8-6.59,27.56,27.56,0,0,0,1.92-9.94H540a33.87,33.87,0,0,1-1.6,9.28,23.29,23.29,0,0,1-3.79,7.17,17.12,17.12,0,0,1-5.62,4.67A15.33,15.33,0,0,1,522,161.38Z" transform="translate(44.23 44.23)"/><path d="M591.83,161.44a18.49,18.49,0,0,1-9.5-2.35,15.68,15.68,0,0,1-6.16-6.72A23.26,23.26,0,0,1,574,142a22.92,22.92,0,0,1,2.16-10.35,15.73,15.73,0,0,1,6.16-6.67,18.48,18.48,0,0,1,9.5-2.34,21,21,0,0,1,7.17,1.2,15.73,15.73,0,0,1,5.73,3.54l-1.81,3.74a17.88,17.88,0,0,0-5.31-3.28,16.19,16.19,0,0,0-5.73-1q-6.07,0-9.41,3.92T579.13,142q0,7.35,3.31,11.3t9.44,3.95a16.42,16.42,0,0,0,5.73-1,17.92,17.92,0,0,0,5.31-3.29l1.81,3.74a15.75,15.75,0,0,1-5.73,3.55A21,21,0,0,1,591.83,161.44Z" transform="translate(44.23 44.23)"/><path d="M618.81,161V123h15.31q6.24,0,9.52,2.75t3.28,7.92a9.56,9.56,0,0,1-3.36,7.73q-3.36,2.83-9.38,2.83l4-.75a5.74,5.74,0,0,1,3.57,1.15,7.92,7.92,0,0,1,2.4,3.65L649,161h-5.28L639,148.37a5.16,5.16,0,0,0-2.38-3,9.12,9.12,0,0,0-4-.75h-8.91V161Zm4.86-20.43h10c2.88,0,5-.58,6.4-1.73a6.26,6.26,0,0,0,2.08-5.1,6.1,6.1,0,0,0-2-5.06c-1.37-1.1-3.51-1.66-6.43-1.66h-10Z" transform="translate(44.23 44.23)"/><path d="M662.82,161V123h4L682,157.54h-2.14l15-34.51h4v38h-4.49V129.75l1.66.22-13.5,31h-3.41l-13.71-31,1.82-.22.05,31.26Z" transform="translate(44.23 44.23)"/><path d="M736.05,161V123H741v38Z" transform="translate(44.23 44.23)"/><path d="M757.06,161V123h4.05l15.15,34.51h-2.13l15-34.51h4v38h-4.48V129.75l1.65.22-13.49,31h-3.42l-13.7-31,1.81-.22.05,31.26Z" transform="translate(44.23 44.23)"/><path d="M809.28,161V123h4.05l15.15,34.51h-2.14l15-34.51h4v38H840.9V129.75l1.66.22-13.5,31h-3.41l-13.71-31,1.82-.22,0,31.26Z" transform="translate(44.23 44.23)"/><path d="M877.6,161.44a17.86,17.86,0,0,1-9.31-2.35,15.63,15.63,0,0,1-6-6.72,26.32,26.32,0,0,1,0-20.72,15.47,15.47,0,0,1,6-6.7,19.79,19.79,0,0,1,18.67,0,15.45,15.45,0,0,1,6,6.7,26.37,26.37,0,0,1,0,20.72,15.78,15.78,0,0,1-6,6.72A17.7,17.7,0,0,1,877.6,161.44Zm0-4.11a11.14,11.14,0,0,0,9.09-4q3.28-4,3.28-11.38t-3.28-11.34a12.54,12.54,0,0,0-18.24,0q-3.29,3.94-3.28,11.31t3.28,11.36A11.21,11.21,0,0,0,877.6,157.33Z" transform="translate(44.23 44.23)"/><path d="M909.76,161V123h15.57c3.84,0,6.86.87,9,2.59a9.72,9.72,0,0,1,1.5,12.91,9.67,9.67,0,0,1-4.94,3.22v-.42a9.26,9.26,0,0,1,5.6,3.14,10.47,10.47,0,0,1-1.3,13.85Q931.9,161,925.81,161Zm4.85-21.34h9.92q4.17,0,6.24-1.6a5.65,5.65,0,0,0,2.08-4.8,5.5,5.5,0,0,0-2.05-4.66q-2.06-1.58-6.27-1.58h-9.92Zm0,17.34h10.78c2.88,0,5-.54,6.35-1.6a5.94,5.94,0,0,0,2-5,6.07,6.07,0,0,0-2-5q-2.06-1.65-6.32-1.65H914.61Z" transform="translate(44.23 44.23)"/><path d="M953.12,161V123H958v38Z" transform="translate(44.23 44.23)"/><path d="M974.14,161V123H979v33.82h18.78V161Z" transform="translate(44.23 44.23)"/><path d="M1010.3,161V123h4.9v38Z" transform="translate(44.23 44.23)"/><path d="M1031.31,161V123h24.27v4.06h-19.42v12.58h18.35v4.11h-18.35V157h19.42V161Z" transform="translate(44.23 44.23)"/><path d="M1069.71,161V123H1085q6.24,0,9.52,2.75t3.28,7.92a9.56,9.56,0,0,1-3.36,7.73q-3.36,2.83-9.39,2.83l4-.75a5.75,5.75,0,0,1,3.58,1.15,7.92,7.92,0,0,1,2.4,3.65l4.8,12.7h-5.28l-4.7-12.64a5.18,5.18,0,0,0-2.37-3,9.17,9.17,0,0,0-4-.75h-8.9V161Zm4.86-20.43h10q4.32,0,6.4-1.73a6.26,6.26,0,0,0,2.08-5.1,6.13,6.13,0,0,0-2-5.06c-1.37-1.1-3.52-1.66-6.43-1.66h-10Z" transform="translate(44.23 44.23)"/><g class="cls-2"><path d="M259.2,83.54V77.32H180.31l55.78-55.79-4.4-4.4-94,94.05V94.8l.12-.12-.12-.12V81.72L217,2.4,212.56-2,137.65,72.92V43.45l60.18-60.18-4.4-4.4L137.65,34.66V-44.23h-6.22V88.36L110.59,67.6V-44.23h-6.22V61.41L83.54,40.65V-44.23H77.32V34.45L21.53-21.13l-4.39,4.4,60.18,60v.1h.1L103.14,69l-8.35,8.37h-13L2.45-2l-4.39,4.4,75,75H43.45L-16.73,17.13l-4.4,4.4L34.66,77.32H-44.23v6.22H88.58l-20.8,20.83h-112v6.22H61.57l-20.8,20.84h-85v6.22H34.56l-55.69,55.78,4.4,4.4,94.05-94.21v29.57L-2,212.54l4.39,4.39L77.32,142v29.52L17.13,231.69l4.4,4.4,55.79-55.78v77h6.22V137.65H95l9.38,9.38V259.2h6.22V153.25l20.84,20.84V259.2h6.22V180.31l55.78,55.78,4.4-4.4-94.05-94h29.38l79.45,79.27,4.39-4.41-75-74.86h29.55l60.18,60.18,4.4-4.4-55.78-55.78H259.2v-6.22H137.65V120l9.38-9.39H259.2v-6.22H153.25l20.84-20.83ZM83.54,131.43v-34l24-24,23.89,23.8v34.29Z" transform="translate(44.23 44.23)"/></g></g></g></svg>